<?xml version="1.0" encoding="UTF-8" standalone="no"?>
<!DOCTYPE svg PUBLIC "-//W3C//DTD SVG 1.1//EN" "http://www.w3.org/Graphics/SVG/1.1/DTD/svg11.dtd">
<!-- Created with Vectornator (http://vectornator.io/) -->
<svg height="100%" stroke-miterlimit="10" style="fill-rule:nonzero;clip-rule:evenodd;stroke-linecap:round;stroke-linejoin:round;" version="1.1" viewBox="0 0 2230.16 382.566" width="100%" xml:space="preserve" xmlns="http://www.w3.org/2000/svg" xmlns:vectornator="http://vectornator.io" xmlns:xlink="http://www.w3.org/1999/xlink">
<defs/>
<g id="Layer-1" vectornator:layerName="Layer 1">
<g opacity="1">
<path d="M370.286 23.9216C373.417 28.3734 375.13 33.8135 375.13 40.4529C375.13 51.6067 371.496 59.4382 364.193 63.9529C356.889 68.4675 346.064 70.7341 331.724 70.7341C320.268 70.7341 310.666 68.6338 302.786 64.6091C304.756 67.4217 307.178 69.9009 310.443 71.7966C318.675 76.5768 329.024 78.9529 341.505 78.9529C355.846 78.9529 366.671 76.7176 373.974 72.2029C381.277 67.6882 384.943 59.8567 384.943 48.7029C384.943 37.0447 379.949 28.8477 370.286 23.9216ZM740.349 23.9216C743.479 28.3734 745.193 33.8135 745.193 40.4529C745.193 51.6067 741.558 59.4382 734.255 63.9529C726.952 68.4675 716.127 70.7341 701.786 70.7341C690.301 70.7341 680.704 68.6237 672.818 64.5779C674.79 67.4063 677.226 69.8928 680.505 71.7966C688.738 76.5768 699.086 78.9529 711.568 78.9529C725.908 78.9529 736.733 76.7176 744.036 72.2029C751.339 67.6882 755.005 59.8567 755.005 48.7029C755.005 37.0447 750.012 28.8477 740.349 23.9216ZM1304.19 26.5466C1308.61 33.16 1310.85 43.3548 1310.85 57.2029L1310.85 225.703C1310.85 247.214 1307.27 262.595 1300.1 271.89C1292.93 281.185 1281.91 285.859 1267.04 285.859C1257.69 285.859 1249.92 284.198 1243.72 280.89C1243.88 281.086 1244.01 281.326 1244.16 281.515C1251.07 289.881 1261.98 294.078 1276.85 294.078C1291.72 294.078 1302.74 289.435 1309.91 280.14C1317.08 270.845 1320.66 255.433 1320.66 233.922L1320.66 65.4216C1320.66 47.6287 1317 35.8266 1309.69 29.9841C1308.06 28.6788 1306.19 27.5617 1304.19 26.5466ZM1431.22 26.8904C1436.65 33.9645 1439.54 44.0561 1439.54 57.5779L1439.54 112.172C1442.74 109.791 1446.01 107.711 1449.32 105.765L1449.32 65.8279C1449.32 50.425 1445.79 39.2092 1438.76 32.1716C1436.64 30.053 1434.05 28.372 1431.22 26.8904ZM884.536 38.6091C886.684 43.6001 887.818 50.5089 887.818 59.5779L888.224 105.39L897.943 105.39L897.599 67.8279C897.599 57.7364 896.286 50.1549 893.63 45.1091C891.917 41.854 888.79 39.7625 884.536 38.6091ZM2146.13 38.6091C2148.27 43.6001 2149.38 50.5089 2149.38 59.5779L2149.79 105.39L2159.54 105.39L2159.19 67.8279C2159.19 57.7364 2157.85 50.1549 2155.19 45.1091C2153.48 41.8615 2150.37 39.7647 2146.13 38.6091ZM213.974 48.1716C214.371 48.5403 214.799 48.8596 215.193 49.2341C240.289 73.1352 252.849 106.056 252.849 148.015C252.849 161.559 251.59 174.706 249.068 187.453C246.545 200.2 242.348 212.62 236.505 224.703C230.663 236.786 223.363 247.275 214.599 256.172C205.835 265.068 194.674 272.228 181.13 277.672C167.586 283.116 152.314 285.859 135.318 285.859L56.8489 285.859C46.1818 285.859 37.5399 284.03 30.8489 280.453C31.1653 280.871 31.4544 281.346 31.7864 281.734C38.824 289.967 50.4618 294.078 66.6614 294.078L145.13 294.078C162.126 294.078 177.399 291.366 190.943 285.922C204.487 280.477 215.648 273.287 224.411 264.39C233.175 255.494 240.475 245.005 246.318 232.922C252.16 220.838 256.326 208.419 258.849 195.672C261.372 182.925 262.63 169.778 262.63 156.234C262.63 114.274 250.101 81.354 225.005 57.4529C221.495 54.1099 217.804 51.0468 213.974 48.1716ZM103.443 68.7341L103.443 231.672C106.935 231.672 110.205 231.482 113.255 231.109L113.255 76.9841C121.753 77.2496 128.999 78.508 134.974 80.7654C137.344 81.6607 139.625 82.8979 141.849 84.2966C141.791 84.2328 141.751 84.141 141.693 84.0779C136.647 78.6337 131.137 74.8039 125.161 72.5466C119.186 70.2893 111.941 68.9997 103.443 68.7341ZM2009.44 109.172C2014.47 115.662 2017.13 124.395 2017.13 135.672C2017.13 146.294 2014.08 154.939 2007.97 161.578C2001.87 168.217 1993.89 171.515 1984.07 171.515C1978.23 171.515 1973.53 170.312 1969.94 167.922C1966.36 165.531 1963.03 163.156 1959.97 160.765C1956.92 158.375 1953.4 157.172 1949.41 157.172C1943.57 157.172 1939.18 159.157 1936.26 163.14L1936.26 243.234C1936.26 259.168 1932.96 270.243 1926.32 276.484C1919.68 282.725 1907.85 285.859 1890.85 285.859C1881.42 285.859 1873.85 284.511 1868.07 281.859C1868.33 282.241 1868.51 282.75 1868.79 283.109C1874.36 290.412 1884.99 294.078 1900.66 294.078C1917.66 294.078 1929.46 290.944 1936.1 284.703C1942.74 278.462 1946.07 267.387 1946.07 251.453L1946.07 171.39C1948.99 167.407 1953.38 165.422 1959.22 165.422C1963.21 165.422 1966.7 166.594 1969.76 168.984C1972.81 171.374 1976.14 173.781 1979.72 176.172C1983.31 178.562 1988.04 179.765 1993.88 179.765C2003.71 179.765 2011.68 176.436 2017.79 169.797C2023.89 163.157 2026.94 154.513 2026.94 143.89C2026.94 126.758 2021.05 115.245 2009.44 109.172ZM1928.32 109.797C1929.18 110.931 1930 112.087 1930.69 113.359C1931.23 112.953 1931.75 112.688 1932.29 112.297C1931.06 111.386 1929.73 110.555 1928.32 109.797ZM367.536 110.265C372.309 116.925 374.724 126.686 374.724 139.64L374.724 243.234C374.724 259.168 371.426 270.243 364.786 276.484C358.147 282.725 346.455 285.859 329.724 285.859C320.175 285.859 312.51 284.482 306.661 281.765C306.947 282.177 307.142 282.724 307.443 283.109C313.152 290.412 323.837 294.078 339.505 294.078C356.236 294.078 367.929 290.944 374.568 284.703C381.207 278.462 384.536 267.387 384.536 251.453L384.536 147.89C384.536 131.16 380.566 119.662 372.599 113.422C371.063 112.218 369.31 111.236 367.536 110.265ZM737.599 110.265C742.38 116.925 744.818 126.686 744.818 139.64L744.818 243.234C744.818 259.168 741.488 270.243 734.849 276.484C728.21 282.725 716.517 285.859 699.786 285.859C690.252 285.859 682.601 284.474 676.755 281.765C677.041 282.177 677.235 282.724 677.536 283.109C683.246 290.412 693.93 294.078 709.599 294.078C726.33 294.078 737.991 290.944 744.63 284.703C751.269 278.462 754.599 267.387 754.599 251.453L754.599 147.89C754.599 131.16 750.628 119.662 742.661 113.422C741.125 112.218 739.373 111.236 737.599 110.265ZM1178.57 110.265C1183.35 116.925 1185.79 126.686 1185.79 139.64L1185.79 243.234C1185.79 259.168 1182.46 270.243 1175.82 276.484C1169.18 282.725 1157.49 285.859 1140.76 285.859C1131.1 285.859 1123.32 284.314 1117.29 281.328C1123.26 289.788 1134.31 294.078 1150.57 294.078C1167.3 294.078 1178.99 290.944 1185.63 284.703C1192.27 278.462 1195.57 267.387 1195.57 251.453L1195.57 147.89C1195.57 131.16 1191.6 119.662 1183.63 113.422C1182.09 112.218 1180.34 111.236 1178.57 110.265ZM1805.97 110.265C1810.76 116.925 1813.19 126.686 1813.19 139.64L1813.19 243.234C1813.19 259.168 1809.86 270.243 1803.22 276.484C1796.58 282.725 1784.89 285.859 1768.16 285.859C1758.5 285.859 1750.72 284.314 1744.69 281.328C1750.67 289.788 1761.71 294.078 1777.97 294.078C1794.7 294.078 1806.37 290.944 1813.01 284.703C1819.64 278.462 1822.97 267.387 1822.97 251.453L1822.97 147.89C1822.97 131.16 1819 119.662 1811.04 113.422C1809.5 112.218 1807.75 111.236 1805.97 110.265ZM615.599 110.515C620.452 117.212 622.911 126.898 622.911 139.64L622.911 212.547C622.911 238.307 621.262 260.434 617.943 278.89C614.623 297.347 608.886 313.597 600.786 327.672C592.687 341.747 581.557 352.236 567.349 359.14C553.141 366.045 535.657 369.515 514.943 369.515C500.602 369.515 487.346 367.499 475.13 363.515C464.972 360.203 456.646 356.233 449.974 351.64C451.878 353.436 453.646 355.221 455.849 357.015C463.019 362.858 472.695 367.782 484.911 371.765C497.128 375.749 510.415 377.734 524.755 377.734C545.47 377.734 562.922 374.264 577.13 367.359C591.338 360.454 602.499 349.965 610.599 335.89C618.699 321.815 624.404 305.566 627.724 287.109C631.044 268.652 632.693 246.557 632.693 220.797L632.693 147.89C632.693 131.425 628.667 120.014 620.568 113.64C619.056 112.451 617.327 111.483 615.599 110.515ZM1541.66 111.609C1543.94 113.882 1546.17 116.27 1548.29 118.953C1562.1 136.48 1568.97 158.631 1568.97 185.453C1568.97 217.852 1558.49 243.168 1537.51 261.359C1516.53 279.55 1489.31 288.64 1455.85 288.64C1435.4 288.64 1417.56 285.702 1402.29 279.859C1395.08 277.102 1388.67 273.666 1382.94 269.609C1390.73 277.47 1400.42 283.653 1412.07 288.109C1427.34 293.952 1445.21 296.859 1465.66 296.859C1499.12 296.859 1526.34 287.769 1547.32 269.578C1568.3 251.386 1578.79 226.102 1578.79 193.703C1578.79 166.881 1571.88 144.699 1558.07 127.172C1553.06 120.819 1547.57 115.658 1541.66 111.609ZM933.818 116.828C935.991 120.711 937.193 125.698 937.193 132.078C937.193 136.327 936.411 139.907 934.818 142.828C933.224 145.749 930.621 148.016 927.036 149.609C923.451 151.203 919.145 152.32 914.099 152.984C909.053 153.648 902.816 153.984 895.38 153.984L888.224 153.984L888.224 197.828C888.224 202.077 888.419 205.571 888.818 208.359C889.216 211.148 889.802 213.359 890.599 214.953C891.396 216.546 892.513 217.609 893.974 218.14C895.358 218.644 897.087 218.866 899.068 218.89C898.905 218.148 898.721 217.465 898.599 216.609C898.2 213.821 898.005 210.296 898.005 206.047L898.005 162.234L905.193 162.234C912.629 162.234 918.866 161.898 923.911 161.234C928.957 160.57 933.264 159.421 936.849 157.828C940.434 156.234 943.037 153.999 944.63 151.078C946.224 148.157 947.005 144.577 947.005 140.328C947.005 130.236 944.293 123.241 938.849 119.39C937.469 118.414 935.789 117.554 933.818 116.828ZM2195.41 116.828C2197.58 120.711 2198.79 125.698 2198.79 132.078C2198.79 136.327 2197.97 139.907 2196.38 142.828C2194.79 145.749 2192.22 148.016 2188.63 149.609C2185.05 151.203 2180.74 152.32 2175.69 152.984C2170.65 153.648 2164.38 153.984 2156.94 153.984L2149.79 153.984L2149.79 197.828C2149.79 202.077 2149.98 205.571 2150.38 208.359C2150.78 211.148 2151.36 213.359 2152.16 214.953C2152.96 216.546 2154.11 217.609 2155.57 218.14C2156.95 218.644 2158.68 218.866 2160.66 218.89C2160.5 218.148 2160.31 217.465 2160.19 216.609C2159.79 213.821 2159.6 210.296 2159.6 206.047L2159.6 162.234L2166.76 162.234C2174.19 162.234 2180.43 161.898 2185.47 161.234C2190.52 160.57 2194.83 159.421 2198.41 157.828C2202 156.234 2204.6 153.999 2206.19 151.078C2207.79 148.157 2208.57 144.577 2208.57 140.328C2208.57 130.236 2205.86 123.241 2200.41 119.39C2199.04 118.418 2197.37 117.552 2195.41 116.828ZM520.13 142.047C515.35 142.047 511.184 144.563 507.599 149.609C504.014 154.655 501.356 160.892 499.63 168.328C497.904 175.764 497.037 183.595 497.036 191.828C497.036 204.309 499.021 215.275 503.005 224.703C506.171 232.196 510.392 236.576 515.568 238.109C514.594 236.546 513.653 234.897 512.818 232.922C508.834 223.494 506.818 212.559 506.818 200.078C506.818 191.845 507.685 184.014 509.411 176.578C511.138 169.142 513.795 162.874 517.38 157.828C520.965 152.782 525.162 150.265 529.943 150.265C532.063 150.265 534.048 150.72 535.943 151.422C531.642 145.278 526.406 142.047 520.13 142.047ZM1459.44 142.047C1451.21 142.047 1444.69 146.971 1439.91 156.797C1439.91 160.249 1439.91 170.12 1439.91 186.453C1439.91 202.785 1439.91 215.596 1439.91 224.89C1443.13 230.965 1447.26 234.835 1452.16 236.828C1451.33 235.645 1450.47 234.541 1449.72 233.14C1449.72 223.846 1449.72 211.035 1449.72 194.703C1449.72 178.37 1449.72 168.468 1449.72 165.015C1454.5 155.189 1461.02 150.265 1469.26 150.265C1470.38 150.265 1471.46 150.454 1472.51 150.734C1471.53 149.256 1470.55 147.801 1469.41 146.609C1466.49 143.555 1463.16 142.047 1459.44 142.047ZM1082.6 142.453C1075.69 142.453 1070.13 147.486 1065.88 157.578C1061.63 167.669 1059.51 179.221 1059.51 192.234C1059.51 204.45 1061.49 215.33 1065.47 224.89C1068.65 232.517 1072.9 236.94 1078.1 238.484C1077.11 236.881 1076.14 235.177 1075.29 233.14C1071.3 223.58 1069.29 212.669 1069.29 200.453C1069.29 187.44 1071.41 175.888 1075.66 165.797C1079.91 155.705 1085.51 150.672 1092.41 150.672C1094.64 150.672 1096.69 151.176 1098.66 151.922C1094.36 145.71 1089.04 142.453 1082.6 142.453ZM1710.01 142.453C1703.1 142.453 1697.54 147.486 1693.29 157.578C1689.04 167.669 1686.91 179.221 1686.91 192.234C1686.91 204.45 1688.9 215.33 1692.88 224.89C1696.05 232.488 1700.27 236.924 1705.44 238.484C1704.45 236.884 1703.51 235.172 1702.66 233.14C1698.68 223.58 1696.69 212.669 1696.69 200.453C1696.69 187.44 1698.82 175.888 1703.07 165.797C1707.32 155.705 1712.91 150.672 1719.82 150.672C1722.05 150.672 1724.1 151.176 1726.07 151.922C1721.77 145.71 1716.45 142.453 1710.01 142.453ZM786.224 150.609C786.234 150.629 786.245 150.652 786.255 150.672C787.981 153.858 790.866 156.461 794.849 158.453C796.6 159.328 798.716 159.976 800.974 160.515L800.974 153.609C794.901 153.366 790.075 152.299 786.224 150.609ZM2047.82 150.609C2047.83 150.629 2047.84 150.652 2047.85 150.672C2049.58 153.858 2052.43 156.461 2056.41 158.453C2058.16 159.328 2060.27 159.976 2062.54 160.515L2062.54 153.609C2056.48 153.367 2051.67 152.292 2047.82 150.609ZM941.974 206.328C942.79 208.102 943.193 210.041 943.193 212.14C943.193 219.311 941.794 227.033 939.005 235.265C936.216 243.498 932.16 251.47 926.849 259.172C921.538 266.873 914.183 273.22 904.755 278.265C895.328 283.311 884.753 285.859 873.068 285.859C854.154 285.859 839.295 282.362 828.349 275.484C839.378 287.843 857.515 294.078 882.88 294.078C894.565 294.078 905.109 291.561 914.536 286.515C923.964 281.47 931.35 275.092 936.661 267.39C941.973 259.689 945.998 251.717 948.786 243.484C951.575 235.251 952.974 227.561 952.974 220.39C952.974 216.141 951.325 212.562 948.005 209.64C946.346 208.18 944.335 207.064 941.974 206.328ZM2203.54 206.328C2204.34 208.102 2204.76 210.041 2204.76 212.14C2204.76 219.311 2203.36 227.033 2200.57 235.265C2197.78 243.498 2193.72 251.47 2188.41 259.172C2183.1 266.873 2175.75 273.22 2166.32 278.265C2156.89 283.311 2146.35 285.859 2134.66 285.859C2115.75 285.859 2100.89 282.362 2089.94 275.484C2100.97 287.843 2119.08 294.078 2144.44 294.078C2156.13 294.078 2166.7 291.561 2176.13 286.515C2185.56 281.47 2192.91 275.092 2198.22 267.39C2203.53 259.689 2207.59 251.717 2210.38 243.484C2213.17 235.251 2214.57 227.561 2214.57 220.39C2214.57 216.141 2212.89 212.562 2209.57 209.64C2207.91 208.18 2205.89 207.064 2203.54 206.328ZM1106.1 271.109C1089.1 282.529 1069.05 288.234 1045.94 288.234C1032.01 288.234 1019.7 284.379 1008.94 276.828C1021.81 289.92 1037.41 296.453 1055.76 296.453C1078.35 296.453 1098 290.939 1114.76 280.015C1111.05 277.722 1108.16 274.749 1106.1 271.109ZM1733.51 271.109C1716.51 282.529 1696.45 288.234 1673.35 288.234C1659.44 288.234 1647.14 284.391 1636.38 276.859C1649.24 289.93 1664.83 296.453 1683.16 296.453C1705.76 296.453 1725.41 290.939 1742.16 280.015C1738.46 277.722 1735.57 274.749 1733.51 271.109ZM446.505 276.859C459.361 289.93 474.959 296.453 493.286 296.453C508.373 296.453 522.201 294.233 534.786 289.859C535.556 285.949 536.068 281.78 536.068 277.078C520.665 284.514 503.126 288.234 483.474 288.234C469.561 288.234 457.266 284.391 446.505 276.859Z" fill="#000000" fill-rule="nonzero" opacity="1" stroke="none"/>
<g opacity="1">
<path d="M92.3284 221.483C99.2332 221.483 105.275 220.753 110.453 219.292C115.632 217.831 120.545 215.176 125.192 211.325C129.84 207.474 133.624 202.362 136.545 195.988C139.467 189.615 141.79 181.449 143.516 171.49C145.243 161.531 146.106 149.78 146.106 136.236C146.106 121.099 144.778 108.285 142.122 97.7951C139.467 87.3052 135.616 79.3382 130.57 73.894C125.524 68.4499 120.014 64.5992 114.039 62.3419C108.063 60.0845 100.827 58.8231 92.3284 58.5575L92.3284 221.483ZM104.279 3.1868C145.707 3.1868 178.97 15.1373 204.066 39.0384C229.162 62.9394 241.71 95.8697 241.71 137.829C241.71 151.373 240.448 164.519 237.926 177.266C235.403 190.013 231.22 202.428 225.378 214.512C219.535 226.595 212.232 237.085 203.468 245.981C194.705 254.878 183.551 262.048 170.007 267.492C156.463 272.937 141.193 275.659 124.196 275.659L45.7214 275.659C29.5218 275.659 17.9033 271.542 10.8658 263.31C3.82823 255.077 0.309463 240.205 0.309463 218.694L0.309463 50.5905C0.309463 18.988 15.4468 3.1868 45.7214 3.1868L104.279 3.1868Z" fill="#000000" fill-rule="nonzero" opacity="1" stroke="none"/>
<path d="M277.163 30.2746C277.163 21.5109 280.947 14.2742 288.516 8.56454C296.085 2.85485 306.774 0 320.583 0C349.53 0 364.004 10.0915 364.004 30.2746C364.004 41.4285 360.352 49.2627 353.049 53.7773C345.746 58.292 334.924 60.5493 320.583 60.5493C308.102 60.5493 297.745 58.1592 289.512 53.379C281.279 48.5988 277.163 40.8973 277.163 30.2746ZM363.605 233.035C363.605 248.969 360.286 260.057 353.646 266.297C347.007 272.538 335.322 275.659 318.592 275.659C302.923 275.659 292.234 272.007 286.524 264.704C280.815 257.401 277.96 245.384 277.96 228.653L277.96 130.659C277.96 117.115 281.611 106.227 288.914 97.9942C296.218 89.7617 305.977 85.6454 318.193 85.6454C332.534 85.6454 343.688 88.7658 351.655 95.0066C359.622 101.247 363.605 112.733 363.605 129.464L363.605 233.035Z" fill="#000000" fill-rule="nonzero" opacity="1" stroke="none"/>
<path d="M472.355 278.049C451.375 278.049 433.98 269.484 420.171 252.355C406.361 235.226 399.457 211.657 399.457 181.648C399.457 151.373 406.229 127.339 419.773 109.546C433.317 91.7534 450.711 82.8569 471.957 82.8569C493.467 82.8569 513.385 90.2928 531.709 105.165C538.614 92.1518 550.033 85.6454 565.967 85.6454C580.308 85.6454 591.528 88.8322 599.628 95.2058C607.728 101.579 611.778 112.999 611.778 129.464L611.778 202.362C611.778 228.122 610.118 250.231 606.798 268.687C603.479 287.144 597.769 303.41 589.669 317.485C581.569 331.56 570.416 342.05 556.208 348.955C542 355.86 524.539 359.312 503.825 359.312C489.484 359.312 476.206 357.32 463.99 353.337C451.773 349.353 442.08 344.44 434.91 338.598C427.74 332.756 422.163 326.913 418.179 321.071C414.196 315.228 412.204 310.182 412.204 305.933C412.204 300.887 413.665 296.638 416.586 293.186C419.507 289.734 423.623 288.007 428.935 288.007C432.121 288.007 440.155 291.46 453.035 298.365C465.915 305.269 476.338 308.722 484.305 308.722C511.393 308.722 524.937 294.779 524.937 266.895C509.534 274.331 492.007 278.049 472.355 278.049ZM526.531 218.296L526.132 143.008C521.618 135.572 515.908 131.854 509.003 131.854C504.223 131.854 500.04 134.377 496.455 139.423C492.87 144.468 490.214 150.709 488.488 158.145C486.762 165.581 485.899 173.415 485.899 181.648C485.899 194.13 487.891 205.084 491.874 214.512C495.858 223.939 501.434 228.653 508.605 228.653C515.775 228.653 521.75 225.201 526.531 218.296Z" fill="#000000" fill-rule="nonzero" opacity="1" stroke="none"/>
<path d="M647.231 30.2746C647.231 21.5109 651.015 14.2742 658.584 8.56454C666.152 2.85485 676.842 0 690.651 0C719.598 0 734.071 10.0915 734.071 30.2746C734.071 41.4285 730.42 49.2627 723.117 53.7773C715.813 58.292 704.992 60.5493 690.651 60.5493C678.169 60.5493 667.812 58.1592 659.58 53.379C651.347 48.5988 647.231 40.8973 647.231 30.2746ZM733.673 233.035C733.673 248.969 730.353 260.057 723.714 266.297C717.075 272.538 705.39 275.659 688.659 275.659C672.991 275.659 662.302 272.007 656.592 264.704C650.882 257.401 648.027 245.384 648.027 228.653L648.027 130.659C648.027 117.115 651.679 106.227 658.982 97.9942C666.285 89.7617 676.045 85.6454 688.261 85.6454C702.602 85.6454 713.755 88.7658 721.722 95.0066C729.689 101.247 733.673 112.733 733.673 129.464L733.673 233.035Z" fill="#000000" fill-rule="nonzero" opacity="1" stroke="none"/>
<path d="M789.84 190.412L789.84 143.406C783.201 143.141 777.89 142.012 773.906 140.02C769.923 138.028 767.068 135.439 765.342 132.252C763.616 129.066 762.752 125.082 762.752 120.302C762.752 105.165 771.915 96.932 790.239 95.6041L790.239 58.5575C790.239 48.466 797.542 39.3703 812.148 31.2705C826.754 23.1707 841.228 19.1208 855.568 19.1208C864.332 19.1208 870.042 21.6437 872.697 26.6895C875.353 31.7353 876.681 39.3039 876.681 49.3955L877.079 95.2058L887.835 95.2058C902.441 95.2058 912.466 97.1311 917.91 100.982C923.354 104.833 926.076 111.804 926.076 121.895C926.076 126.144 925.279 129.729 923.686 132.651C922.093 135.572 919.503 137.829 915.918 139.423C912.333 141.016 908.018 142.145 902.972 142.809C897.926 143.473 891.685 143.805 884.249 143.805L877.079 143.805L877.079 187.623C877.079 191.872 877.278 195.391 877.677 198.179C878.075 200.968 878.672 203.159 879.469 204.752C880.266 206.346 881.395 207.408 882.855 207.939C884.316 208.47 886.108 208.736 888.233 208.736C891.42 208.736 894.075 207.607 896.2 205.35C898.324 203.092 899.984 200.57 901.179 197.781C902.374 194.993 903.968 192.47 905.959 190.212C907.951 187.955 910.275 186.826 912.931 186.826C919.039 186.826 923.752 188.287 927.072 191.208C930.392 194.13 932.051 197.715 932.051 201.964C932.051 209.134 930.657 216.835 927.869 225.068C925.08 233.301 921.03 241.268 915.719 248.969C910.408 256.671 903.038 263.044 893.611 268.09C884.183 273.136 873.627 275.659 861.942 275.659C835.651 275.659 817.061 269.019 806.173 255.741C795.284 242.463 789.84 220.686 789.84 190.412Z" fill="#000000" fill-rule="nonzero" opacity="1" stroke="none"/>
<path d="M1034.83 278.049C1013.85 278.049 996.451 269.484 982.642 252.355C968.832 235.226 961.928 211.79 961.928 182.046C961.928 151.772 968.766 127.671 982.443 109.746C996.119 91.8198 1013.58 82.8569 1034.83 82.8569C1056.34 82.8569 1076.25 90.4256 1094.58 105.563C1101.75 92.2845 1113.3 85.6454 1129.23 85.6454C1143.58 85.6454 1154.73 88.7658 1162.7 95.0066C1170.66 101.247 1174.65 112.733 1174.65 129.464L1174.65 233.035C1174.65 248.969 1171.33 260.057 1164.69 266.297C1158.05 272.538 1146.36 275.659 1129.63 275.659C1112.11 275.659 1100.55 270.746 1094.98 260.92C1077.98 272.339 1057.93 278.049 1034.83 278.049ZM1089 143.805C1084.49 136.103 1078.64 132.252 1071.47 132.252C1064.57 132.252 1058.99 137.298 1054.74 147.39C1050.49 157.481 1048.37 169.033 1048.37 182.046C1048.37 194.262 1050.36 205.151 1054.35 214.711C1058.33 224.271 1063.91 229.052 1071.08 229.052C1078.51 229.052 1084.49 225.466 1089 218.296L1089 143.805Z" fill="#000000" fill-rule="nonzero" opacity="1" stroke="none"/>
<path d="M1299.73 215.508C1299.73 237.019 1296.14 252.421 1288.97 261.716C1281.8 271.011 1270.78 275.659 1255.91 275.659C1241.04 275.659 1230.15 271.476 1223.25 263.111C1216.34 254.745 1212.89 239.94 1212.89 218.694L1212.09 50.5905C1212.09 43.6858 1212.82 37.5777 1214.28 32.2664C1215.74 26.9551 1217.74 22.4404 1220.26 18.7225C1222.78 15.0045 1225.9 11.9505 1229.62 9.56041C1233.34 7.17031 1237.39 5.44412 1241.77 4.38186C1246.15 3.31959 1250.86 2.78845 1255.91 2.78845C1270.52 2.78845 1281.47 5.70969 1288.77 11.5522C1296.08 17.3946 1299.73 29.2124 1299.73 47.0054L1299.73 215.508Z" fill="#000000" fill-rule="nonzero" opacity="1" stroke="none"/>
<path d="M1428.4 101.978C1445.92 88.965 1464.91 82.4586 1485.36 82.4586C1506.07 82.4586 1523.34 91.2223 1537.15 108.75C1550.96 126.277 1557.86 148.452 1557.86 175.274C1557.86 207.673 1547.37 232.969 1526.39 251.16C1505.41 269.351 1478.19 278.447 1444.73 278.447C1424.28 278.447 1406.42 275.526 1391.15 269.683C1375.88 263.841 1363.93 255.077 1355.3 243.392C1346.67 231.707 1342.22 217.632 1341.95 201.167L1341.16 50.9889C1341.16 34.5237 1345.14 22.4404 1353.11 14.739C1361.07 7.03753 1371.7 3.1868 1384.98 3.1868C1399.85 3.1868 1410.8 6.70557 1417.84 13.7431C1424.88 20.7806 1428.4 32.0008 1428.4 47.4037L1428.4 101.978ZM1428.79 214.711C1433.57 223.74 1440.21 228.255 1448.71 228.255C1455.88 228.255 1461.46 223.74 1465.44 214.711C1469.43 205.682 1471.42 195.325 1471.42 183.64C1471.42 177.266 1470.89 171.025 1469.82 164.917C1468.76 158.809 1467.3 153.299 1465.44 148.386C1463.58 143.473 1461.19 139.489 1458.27 136.435C1455.35 133.381 1452.03 131.854 1448.31 131.854C1440.08 131.854 1433.57 136.767 1428.79 146.593C1428.79 150.045 1428.79 159.938 1428.79 176.27C1428.79 192.602 1428.79 205.416 1428.79 214.711Z" fill="#000000" fill-rule="nonzero" opacity="1" stroke="none"/>
<path d="M1662.23 278.049C1641.25 278.049 1623.85 269.484 1610.04 252.355C1596.23 235.226 1589.33 211.79 1589.33 182.046C1589.33 151.772 1596.17 127.671 1609.84 109.746C1623.52 91.8198 1640.98 82.8569 1662.23 82.8569C1683.74 82.8569 1703.66 90.4256 1721.98 105.563C1729.15 92.2845 1740.7 85.6454 1756.64 85.6454C1770.98 85.6454 1782.13 88.7658 1790.1 95.0066C1798.07 101.247 1802.05 112.733 1802.05 129.464L1802.05 233.035C1802.05 248.969 1798.73 260.057 1792.09 266.297C1785.45 272.538 1773.77 275.659 1757.04 275.659C1739.51 275.659 1727.96 270.746 1722.38 260.92C1705.38 272.339 1685.33 278.049 1662.23 278.049ZM1716.4 143.805C1711.89 136.103 1706.05 132.252 1698.88 132.252C1691.97 132.252 1686.39 137.298 1682.15 147.39C1677.9 157.481 1675.77 169.033 1675.77 182.046C1675.77 194.262 1677.76 205.151 1681.75 214.711C1685.73 224.271 1691.31 229.052 1698.48 229.052C1705.91 229.052 1711.89 225.466 1716.4 218.296L1716.4 143.805Z" fill="#000000" fill-rule="nonzero" opacity="1" stroke="none"/>
<path d="M1925.14 233.035C1925.14 248.969 1921.82 260.057 1915.18 266.297C1908.54 272.538 1896.72 275.659 1879.73 275.659C1864.06 275.659 1853.44 272.007 1847.86 264.704C1842.28 257.401 1839.49 245.384 1839.49 228.653L1839.49 130.659C1839.49 121.63 1841.09 113.729 1844.27 106.957C1847.46 100.185 1852.11 94.9402 1858.22 91.2223C1864.32 87.5043 1871.49 85.6454 1879.73 85.6454C1899.91 85.6454 1913.19 91.4878 1919.56 103.173C1934.97 91.4878 1949.84 85.6454 1964.18 85.6454C1992.06 85.6454 2006 98.9237 2006 125.48C2006 136.103 2002.95 144.734 1996.84 151.373C1990.73 158.012 1982.77 161.332 1972.94 161.332C1967.1 161.332 1962.39 160.137 1958.8 157.747C1955.21 155.357 1951.9 152.967 1948.84 150.577C1945.79 148.186 1942.27 146.991 1938.28 146.991C1932.44 146.991 1928.06 148.983 1925.14 152.967L1925.14 233.035Z" fill="#000000" fill-rule="nonzero" opacity="1" stroke="none"/>
<path d="M2051.42 190.412L2051.42 143.406C2044.78 143.141 2039.47 142.012 2035.48 140.02C2031.5 138.028 2028.64 135.439 2026.92 132.252C2025.19 129.066 2024.33 125.082 2024.33 120.302C2024.33 105.165 2033.49 96.932 2051.81 95.6041L2051.81 58.5575C2051.81 48.466 2059.12 39.3703 2073.72 31.2705C2088.33 23.1707 2102.8 19.1208 2117.14 19.1208C2125.91 19.1208 2131.62 21.6437 2134.27 26.6895C2136.93 31.7353 2138.26 39.3039 2138.26 49.3955L2138.66 95.2058L2149.41 95.2058C2164.02 95.2058 2174.04 97.1311 2179.49 100.982C2184.93 104.833 2187.65 111.804 2187.65 121.895C2187.65 126.144 2186.86 129.729 2185.26 132.651C2183.67 135.572 2181.08 137.829 2177.49 139.423C2173.91 141.016 2169.59 142.145 2164.55 142.809C2159.5 143.473 2153.26 143.805 2145.83 143.805L2138.66 143.805L2138.66 187.623C2138.66 191.872 2138.85 195.391 2139.25 198.179C2139.65 200.968 2140.25 203.159 2141.05 204.752C2141.84 206.346 2142.97 207.408 2144.43 207.939C2145.89 208.47 2147.68 208.736 2149.81 208.736C2153 208.736 2155.65 207.607 2157.78 205.35C2159.9 203.092 2161.56 200.57 2162.76 197.781C2163.95 194.993 2165.54 192.47 2167.54 190.212C2169.53 187.955 2171.85 186.826 2174.51 186.826C2180.61 186.826 2185.33 188.287 2188.65 191.208C2191.97 194.13 2193.63 197.715 2193.63 201.964C2193.63 209.134 2192.23 216.835 2189.44 225.068C2186.66 233.301 2182.61 241.268 2177.3 248.969C2171.98 256.671 2164.61 263.044 2155.19 268.09C2145.76 273.136 2135.2 275.659 2123.52 275.659C2097.23 275.659 2078.64 269.019 2067.75 255.741C2056.86 242.463 2051.42 220.686 2051.42 190.412Z" fill="#000000" fill-rule="nonzero" opacity="1" stroke="none"/>
</g>
</g>
</g>
</svg>
